<svg xmlns="http://www.w3.org/2000/svg" xmlns:xlink="http://www.w3.org/1999/xlink" width="500" zoomAndPan="magnify" viewBox="0 0 375 374.999991" height="500" preserveAspectRatio="xMidYMid meet" version="1.2"><defs><clipPath id="ea37c5fea7"><path d="M 0 34.507812 L 176 34.507812 L 176 339 L 0 339 Z M 0 34.507812 "/></clipPath><clipPath id="d0cd45e8b8"><path d="M 192 101 L 331 101 L 331 340.507812 L 192 340.507812 Z M 192 101 "/></clipPath><clipPath id="4348c3fc9e"><path d="M 192 34.507812 L 369 34.507812 L 369 149 L 192 149 Z M 192 34.507812 "/></clipPath></defs><g id="1bad9e4e82"><g clip-rule="nonzero" clip-path="url(#ea37c5fea7)"><path style=" stroke:none;fill-rule:evenodd;fill:#dadada;fill-opacity:1;" d="M 26.964844 81.296875 L 128.558594 81.296875 L 128.558594 257.265625 L 175.261719 338.152344 L 175.261719 34.597656 L 0 34.597656 Z M 26.964844 81.296875 "/></g><g clip-rule="nonzero" clip-path="url(#d0cd45e8b8)"><path style=" stroke:none;fill-rule:evenodd;fill:#dadada;fill-opacity:1;" d="M 239.246094 102.980469 L 192.542969 169.859375 L 192.542969 340.21875 L 239.246094 259.332031 L 239.246094 189.546875 L 268.144531 148.160156 L 303.4375 148.160156 L 330.386719 101.476562 L 240.308594 101.476562 Z M 239.246094 102.980469 "/></g><g clip-rule="nonzero" clip-path="url(#4348c3fc9e)"><path style=" stroke:none;fill-rule:evenodd;fill:#dadada;fill-opacity:1;" d="M 192.542969 34.597656 C 192.542969 34.597656 192.542969 116.882812 192.542969 148.160156 L 239.246094 81.28125 L 342.035156 81.28125 L 369 34.597656 Z M 192.542969 34.597656 "/></g></g></svg>